<svg width="240" height="100" viewBox="0 0 240 100" fill="none" xmlns="http://www.w3.org/2000/svg">
<mask id="mask0_1130_15620" style="mask-type:alpha" maskUnits="userSpaceOnUse" x="30" y="39" width="20" height="21">
<path d="M31.9641 45.8962C27.8675 52.7095 31.8673 57.2892 35.6122 59.366C36.3027 59.749 36.6479 59.9404 36.8355 59.7728C37.0231 59.6052 36.856 59.2032 36.5218 58.3993C35.2084 55.2396 36.0472 52.8071 37.1501 51.2586C37.5176 50.7426 37.7014 50.4846 37.9126 50.5126C38.1239 50.5406 38.261 50.9102 38.5354 51.6493C38.8229 52.4238 39.3989 53.2504 40.5512 53.5686C41.5576 53.8464 42.3045 53.5904 42.8026 53.2603C43.2862 52.9398 43.528 52.7796 43.6848 52.8243C43.8416 52.8691 43.9284 53.0585 44.102 53.4374C44.7856 54.9298 44.7732 56.602 44.4818 57.9999C44.2517 59.1041 44.1366 59.6563 44.342 59.7879C44.5473 59.9194 44.9515 59.6207 45.7598 59.0231C51.895 54.4877 49.8522 48.3452 46.937 44.7327C46.591 44.3039 46.418 44.0895 46.236 44.1003C46.054 44.1111 45.8712 44.4023 45.5057 44.9847C45.0222 45.7552 44.1073 46.5018 42.4254 46.0375C40.4389 45.489 40.3462 42.3212 40.4465 40.6132C40.4772 40.091 40.4925 39.8299 40.3211 39.7176C40.1496 39.6053 39.9431 39.7102 39.53 39.9199C36.8432 41.2839 35.9117 44.5367 35.5273 46.5738C35.4706 46.8741 35.4423 47.0243 35.283 47.1023C35.1238 47.1803 35.0213 47.1278 34.8161 47.0229C34.4053 46.8126 34.0156 46.4343 33.6993 46.0115C33.1674 45.3004 32.9014 44.9449 32.7131 44.9544C32.5247 44.9639 32.3378 45.2747 31.9641 45.8962Z" fill="#D9D9D9"/>
</mask>
<g mask="url(#mask0_1130_15620)">
<g clip-path="url(#clip0_1130_15620)">
<rect x="29.958" y="39.4463" width="20.8345" height="20.7964" fill="white"/>
<g filter="url(#filter0_f_1130_15620)">
<path d="M40.2095 43.1711C38.9184 38.5347 41.9074 37.2652 43.5632 37.21H52.9113C52.957 37.21 52.9941 37.247 52.9941 37.2928V56.0772C52.9941 56.1266 52.9526 56.1652 52.9036 56.1589C51.0294 55.9185 47.2678 54.5442 46.5135 50.8296C45.5553 46.1103 41.8233 48.9667 40.2095 43.1711Z" fill="#79F6FF"/>
</g>
<g filter="url(#filter1_f_1130_15620)">
<path d="M38.028 47.6074C42.5484 45.3723 44.1367 39.8236 44.7604 37.3102C44.7733 37.2581 44.7332 37.21 44.6795 37.21H30.081C30.0352 37.21 29.9982 37.247 29.9982 37.2928V42.0769C29.9679 47.7106 29.9254 59.2083 29.9982 60.1286C30.07 61.0379 32.8696 61.9357 34.3101 62.2842C34.3419 62.2919 34.3743 62.2797 34.3942 62.2536L37.9885 57.5258C38.0117 57.4954 38.0118 57.4541 37.9878 57.4243C36.082 55.0556 33.4785 49.8569 38.028 47.6074Z" fill="#B260FF"/>
</g>
<g filter="url(#filter2_f_1130_15620)">
<path d="M46.7488 53.6631C47.5033 56.6291 50.3386 57.9137 51.7262 58.2036C51.7651 58.2117 51.7921 58.2455 51.7921 58.2852V62.3565C51.7921 62.4023 51.755 62.4393 51.7093 62.4393H34.8156C34.7654 62.4393 34.7263 62.3984 34.7327 62.3486C34.8267 61.6278 35.4199 56.8175 34.7207 55.4018C33.9642 53.8701 35.0989 50.0616 38.5536 48.0331C42.0082 46.0047 45.7906 49.896 46.7488 53.6631Z" fill="#0064FF"/>
</g>
<g filter="url(#filter3_f_1130_15620)">
<path d="M40.2095 43.1711C38.9184 38.5347 41.9074 37.2652 43.5632 37.21H52.9113C52.957 37.21 52.9941 37.247 52.9941 37.2928V56.0772C52.9941 56.1266 52.9526 56.1652 52.9036 56.1589C51.0294 55.9185 47.2678 54.5442 46.5135 50.8296C45.5553 46.1103 41.8233 48.9667 40.2095 43.1711Z" fill="#79F6FF"/>
</g>
<g filter="url(#filter4_f_1130_15620)">
<path d="M38.028 47.6074C42.5484 45.3723 44.1367 39.8236 44.7604 37.3102C44.7733 37.2581 44.7332 37.21 44.6795 37.21H30.081C30.0352 37.21 29.9982 37.247 29.9982 37.2928V42.0769C29.9679 47.7106 29.9254 59.2083 29.9982 60.1286C30.07 61.0379 32.8696 61.9357 34.3101 62.2842C34.3419 62.2919 34.3743 62.2797 34.3942 62.2536L37.9885 57.5258C38.0117 57.4954 38.0118 57.4541 37.9878 57.4243C36.082 55.0556 33.4785 49.8569 38.028 47.6074Z" fill="#B260FF"/>
</g>
<g filter="url(#filter5_f_1130_15620)">
<path d="M46.7488 53.6631C47.5033 56.6291 50.3386 57.9137 51.7262 58.2036C51.7651 58.2117 51.7921 58.2455 51.7921 58.2852V62.3565C51.7921 62.4023 51.755 62.4393 51.7093 62.4393H34.8156C34.7654 62.4393 34.7263 62.3984 34.7327 62.3486C34.8267 61.6278 35.4199 56.8175 34.7207 55.4018C33.9642 53.8701 35.0989 50.0616 38.5536 48.0331C42.0082 46.0047 45.7906 49.896 46.7488 53.6631Z" fill="#0064FF"/>
</g>
<g filter="url(#filter6_f_1130_15620)">
<path d="M40.2095 43.1711C38.9184 38.5347 41.9074 37.2652 43.5632 37.21H52.9113C52.957 37.21 52.9941 37.247 52.9941 37.2928V56.0772C52.9941 56.1266 52.9526 56.1652 52.9036 56.1589C51.0294 55.9185 47.2678 54.5442 46.5135 50.8296C45.5553 46.1103 41.8233 48.9667 40.2095 43.1711Z" fill="#79F6FF"/>
</g>
<g filter="url(#filter7_f_1130_15620)">
<path d="M38.028 47.6074C42.5484 45.3723 44.1367 39.8236 44.7604 37.3102C44.7733 37.2581 44.7332 37.21 44.6795 37.21H30.081C30.0352 37.21 29.9982 37.247 29.9982 37.2928V42.0769C29.9679 47.7106 29.9254 59.2083 29.9982 60.1286C30.07 61.0379 32.8696 61.9357 34.3101 62.2842C34.3419 62.2919 34.3743 62.2797 34.3942 62.2536L37.9885 57.5258C38.0117 57.4954 38.0118 57.4541 37.9878 57.4243C36.082 55.0556 33.4785 49.8569 38.028 47.6074Z" fill="#B260FF"/>
</g>
<g filter="url(#filter8_f_1130_15620)">
<path d="M46.7488 53.6631C47.5033 56.6291 50.3386 57.9137 51.7262 58.2036C51.7651 58.2117 51.7921 58.2455 51.7921 58.2852V62.3565C51.7921 62.4023 51.755 62.4393 51.7093 62.4393H34.8156C34.7654 62.4393 34.7263 62.3984 34.7327 62.3486C34.8267 61.6278 35.4199 56.8175 34.7207 55.4018C33.9642 53.8701 35.0989 50.0616 38.5536 48.0331C42.0082 46.0047 45.7906 49.896 46.7488 53.6631Z" fill="#0064FF"/>
</g>
</g>
</g>
<path d="M58.074 45.1556H52.5518V41.875H67.59V45.1556H62.0677V59.2721H58.074V45.1556Z" fill="white"/>
<path d="M69.7388 41.875H73.7326V59.2721H69.7388V41.875Z" fill="white"/>
<path d="M93.6551 41.875V59.2721H90.3763L81.7725 48.7096V59.2721H77.828V41.875H81.1315L89.7107 52.4375V41.875H93.6551Z" fill="white"/>
<path d="M100.918 59.5703C99.7514 59.5703 98.6748 59.3549 97.6887 58.9241C96.7191 58.4768 95.922 57.8472 95.2974 57.0353L97.5162 54.3512C98.453 55.627 99.5213 56.2649 100.721 56.2649C102.348 56.2649 103.162 55.3039 103.162 53.3819V45.1059H97.0971V41.875H107.131V53.1582C107.131 55.2956 106.605 56.9028 105.553 57.9797C104.501 59.0401 102.956 59.5703 100.918 59.5703Z" fill="white"/>
<path d="M111.076 41.875H115.069V59.2721H111.076V41.875Z" fill="white"/>
<path d="M133.913 55.5441H125.901L124.372 59.2721H120.28L127.972 41.875H131.916L139.632 59.2721H135.441L133.913 55.5441ZM132.656 52.4872L129.919 45.8266L127.183 52.4872H132.656Z" fill="white"/>
<path d="M141.423 41.875H149.262C151.136 41.875 152.788 42.2395 154.218 42.9685C155.664 43.681 156.782 44.6917 157.57 46.0006C158.376 47.3095 158.778 48.8338 158.778 50.5735C158.778 52.3132 158.376 53.8376 157.57 55.1465C156.782 56.4554 155.664 57.4744 154.218 58.2034C152.788 58.9158 151.136 59.2721 149.262 59.2721H141.423V41.875ZM149.065 55.9666C150.791 55.9666 152.163 55.4861 153.182 54.5252C154.218 53.5476 154.735 52.2304 154.735 50.5735C154.735 48.9167 154.218 47.6078 153.182 46.6468C152.163 45.6692 150.791 45.1804 149.065 45.1804H145.417V55.9666H149.065Z" fill="white"/>
<path d="M177.494 59.2721L177.469 48.8338L172.391 57.433H170.591L165.538 49.0575V59.2721H161.79V41.875H165.094L171.553 52.686L177.913 41.875H181.192L181.241 59.2721H177.494Z" fill="white"/>
<path d="M185.336 41.875H189.329V59.2721H185.336V41.875Z" fill="white"/>
<path d="M209.252 41.875V59.2721H205.973L197.369 48.7096V59.2721H193.425V41.875H196.728L205.308 52.4375V41.875H209.252Z" fill="white"/>
<defs>
<filter id="filter0_f_1130_15620" x="27.4754" y="24.7908" width="37.9378" height="43.7875" filterUnits="userSpaceOnUse" color-interpolation-filters="sRGB">
<feFlood flood-opacity="0" result="BackgroundImageFix"/>
<feBlend mode="normal" in="SourceGraphic" in2="BackgroundImageFix" result="shape"/>
<feGaussianBlur stdDeviation="6.20956" result="effect1_foregroundBlur_1130_15620"/>
</filter>
<filter id="filter1_f_1130_15620" x="17.5389" y="24.7908" width="39.6429" height="49.9144" filterUnits="userSpaceOnUse" color-interpolation-filters="sRGB">
<feFlood flood-opacity="0" result="BackgroundImageFix"/>
<feBlend mode="normal" in="SourceGraphic" in2="BackgroundImageFix" result="shape"/>
<feGaussianBlur stdDeviation="6.20956" result="effect1_foregroundBlur_1130_15620"/>
</filter>
<filter id="filter2_f_1130_15620" x="22.078" y="35.0574" width="42.1332" height="39.8011" filterUnits="userSpaceOnUse" color-interpolation-filters="sRGB">
<feFlood flood-opacity="0" result="BackgroundImageFix"/>
<feBlend mode="normal" in="SourceGraphic" in2="BackgroundImageFix" result="shape"/>
<feGaussianBlur stdDeviation="6.20956" result="effect1_foregroundBlur_1130_15620"/>
</filter>
<filter id="filter3_f_1130_15620" x="27.4754" y="24.7908" width="37.9378" height="43.7875" filterUnits="userSpaceOnUse" color-interpolation-filters="sRGB">
<feFlood flood-opacity="0" result="BackgroundImageFix"/>
<feBlend mode="normal" in="SourceGraphic" in2="BackgroundImageFix" result="shape"/>
<feGaussianBlur stdDeviation="6.20956" result="effect1_foregroundBlur_1130_15620"/>
</filter>
<filter id="filter4_f_1130_15620" x="17.5389" y="24.7908" width="39.6429" height="49.9144" filterUnits="userSpaceOnUse" color-interpolation-filters="sRGB">
<feFlood flood-opacity="0" result="BackgroundImageFix"/>
<feBlend mode="normal" in="SourceGraphic" in2="BackgroundImageFix" result="shape"/>
<feGaussianBlur stdDeviation="6.20956" result="effect1_foregroundBlur_1130_15620"/>
</filter>
<filter id="filter5_f_1130_15620" x="22.078" y="35.0574" width="42.1332" height="39.8011" filterUnits="userSpaceOnUse" color-interpolation-filters="sRGB">
<feFlood flood-opacity="0" result="BackgroundImageFix"/>
<feBlend mode="normal" in="SourceGraphic" in2="BackgroundImageFix" result="shape"/>
<feGaussianBlur stdDeviation="6.20956" result="effect1_foregroundBlur_1130_15620"/>
</filter>
<filter id="filter6_f_1130_15620" x="27.4754" y="24.7908" width="37.9378" height="43.7875" filterUnits="userSpaceOnUse" color-interpolation-filters="sRGB">
<feFlood flood-opacity="0" result="BackgroundImageFix"/>
<feBlend mode="normal" in="SourceGraphic" in2="BackgroundImageFix" result="shape"/>
<feGaussianBlur stdDeviation="6.20956" result="effect1_foregroundBlur_1130_15620"/>
</filter>
<filter id="filter7_f_1130_15620" x="17.5389" y="24.7908" width="39.6429" height="49.9144" filterUnits="userSpaceOnUse" color-interpolation-filters="sRGB">
<feFlood flood-opacity="0" result="BackgroundImageFix"/>
<feBlend mode="normal" in="SourceGraphic" in2="BackgroundImageFix" result="shape"/>
<feGaussianBlur stdDeviation="6.20956" result="effect1_foregroundBlur_1130_15620"/>
</filter>
<filter id="filter8_f_1130_15620" x="22.078" y="35.0574" width="42.1332" height="39.8011" filterUnits="userSpaceOnUse" color-interpolation-filters="sRGB">
<feFlood flood-opacity="0" result="BackgroundImageFix"/>
<feBlend mode="normal" in="SourceGraphic" in2="BackgroundImageFix" result="shape"/>
<feGaussianBlur stdDeviation="6.20956" result="effect1_foregroundBlur_1130_15620"/>
</filter>
<clipPath id="clip0_1130_15620">
<rect width="20.8345" height="20.7959" fill="white" transform="translate(29.9561 39.4473)"/>
</clipPath>
</defs>
</svg>
